# xmcd CD database file
#
# Track frame offsets:
#	150
#	27274
#	57638
#	80686
#	108511
#	133779
#	156607
#	179978
#	206444
#	227621
#	264213
#
# Disc length: 3815 seconds
#
# Revision: 0
# Processed by: cddbd v1.4PL0 Copyright (c) Steve Scherf et al.
# Submitted via: CDex 1.50Beta7
#
DISCID=a10ee50b
DTITLE=Various Artist - In Love With Hot Springs
DYEAR=2001
DGENRE=New Age
TTITLE0=Wild Streams Wulai Hot Spring
TTITLE1=Green Pond Chih-Pen Hot Spring
TTITLE2=Springtime Water Antung Hot Spring
TTITLE3=Between Water And Clouds Taian Hot Spring
TTITLE4=Nostalgia For The Hot Spring Country Peitou Hot Spring
TTITLE5=Morning Sun Lutao Hot Spring
TTITLE6=Love In Kuan Zhi Hill Kuan Zhi Hill Hot Spring
TTITLE7=Giamotous Lamp Chiao-Hui Hot Spring
TTITLE8=Spring In The Warm Valley Paolai Hot Spring
TTITLE9=Four-Forked Stream Si-Chung-Hsi Hot Spring
TTITLE10=11
EXTD=YEAR: 2001
EXTT0=
EXTT1=
EXTT2=
EXTT3=
EXTT4=
EXTT5=
EXTT6=
EXTT7=
EXTT8=
EXTT9=
EXTT10=
PLAYORDER=
